<svg xmlns="http://www.w3.org/2000/svg" viewBox="0 0 512 512" style="fill:#5d4037">
  <path d="M 256 24 A 232 232 0 0 0 246.38672 24.341797 C 261.94454 58.810115 262.06205 99.335141 260.55859 136.67773 C 254.48962 159.57337 268.1003 144.84672 279.67578 139.21484 C 318.66784 124.52451 345.99675 85.065957 350.12305 44.138672 A 232 232 0 0 0 256 24 z M 239.39844 24.605469 A 232 232 0 0 0 154.18945 47.707031 C 164.30868 92.31891 197.19672 129.04689 226.11914 163.68945 C 234.68232 132.01118 242.13437 99.686379 243.57227 66.785156 C 244.93105 52.659423 242.85928 38.301454 239.39844 24.605469 z M 350.69336 44.414062 C 351.69564 71.418804 337.54014 97.499343 321.50781 118.4668 C 304.67806 143.32704 268.25133 147.04492 256.24219 175.74609 C 226.97293 217.4948 229.06041 273.13747 244.65039 319.68359 C 253.96615 316.20593 265.31924 285.86583 280.63086 277.00586 C 314.48681 242.71816 365.41439 228.80991 392.2207 187.125 C 403.95063 172.12103 412.16894 146.28967 414.73047 132.97852 C 413.04011 165.14074 395.82804 194.97173 374.4082 218.27148 C 343.49418 247.41032 303.90357 267.188 278.4707 302.2207 C 264.83214 320.09316 248.83912 352.3658 273.79297 367.98828 C 302.32662 386.0736 321.13058 418.41454 320.51562 453.00195 C 336.69139 453.94681 352.90038 455.69751 368.98047 458.31641 A 232 232 0 0 0 488 256 A 232 232 0 0 0 350.69336 44.414062 z M 153.15625 48.169922 A 232 232 0 0 0 24 256 A 232 232 0 0 0 142.76758 458.36914 C 147.15847 457.64675 151.55955 456.99081 155.9707 456.41797 C 172.36234 454.58175 190.44136 457.23583 200.5332 440.69922 C 223.47287 419.86957 218.44884 385.50916 206.25977 360.42578 C 200.42124 350.62206 196.70864 327.43783 177.67383 330.28906 C 124.55864 334.50301 79.989866 295.8917 53.214844 253.77344 C 82.030434 286.96609 121.43062 321.24095 168.60156 315.85938 C 199.84288 323.6479 176.84524 292.0307 181.62305 273.93555 C 153.61321 264.24988 134.8748 238.92042 122.79688 213.00781 C 112.97362 185.8841 100.0653 158.26405 75 141.91406 C 75.238104 133.51669 107.32212 161.9486 113.06445 174.14062 C 130.32202 204.61965 144.39161 242.96203 180.4707 255.79492 C 190.80869 237.5786 199.96681 204.13029 216.02734 183.125 C 220.45169 162.46559 191.51536 143.68632 183.28125 123.07227 C 169.43112 100.33589 154.97439 74.987778 153.15625 48.169922 z"/>
</svg>
